<?xml version="1.0" encoding="utf-8"?>
<!-- Generator: Adobe Illustrator 17.1.0, SVG Export Plug-In . SVG Version: 6.00 Build 0)  -->
<!DOCTYPE svg PUBLIC "-//W3C//DTD SVG 1.1//EN" "http://www.w3.org/Graphics/SVG/1.1/DTD/svg11.dtd">
<svg version="1.1" xmlns="http://www.w3.org/2000/svg" xmlns:xlink="http://www.w3.org/1999/xlink" x="0px" y="0px"
	 viewBox="0 0 581.5 156.7" style="enable-background:new 0 0 581.5 156.7;" xml:space="preserve">
<g id="Layer_1" style="display:none;">
</g>
<g id="Layer_2">
</g>
<g id="Layer_3">
</g>
<g id="Layer_5">
</g>
<g id="Layer_4">
</g>
<g id="Layer_6">
</g>
<g id="Layer_7">
	
		<rect x="295.8" y="24.7" transform="matrix(0.7071 0.7071 -0.7071 0.7071 155.1751 -223.0874)" style="fill:#896629;" width="102.1" height="102.1"/>
	
		<rect x="183.6" y="24.7" transform="matrix(0.7071 0.7071 -0.7071 0.7071 122.2934 -143.704)" style="fill:#896629;" width="102.1" height="102.1"/>
	<g>
		
			<image style="overflow:visible;opacity:0.75;" width="163" height="163" xlink:href="515EF8466672047.png"  transform="matrix(1 0 0 1 99 -3.4012)">
		</image>
		<g>
			
				<rect x="127.4" y="24.7" transform="matrix(0.7071 0.7071 -0.7071 0.7071 105.8525 -104.0121)" style="fill:#BC8C38;" width="102.1" height="102.1"/>
		</g>
	</g>
	<g>
		
			<image style="overflow:visible;opacity:0.75;" width="164" height="163" xlink:href="515EF8466672045.png"  transform="matrix(1 0 0 1 323 -3.4012)">
		</image>
		<g>
			
				<rect x="352" y="24.7" transform="matrix(0.7071 0.7071 -0.7071 0.7071 171.616 -262.7792)" style="fill:#BC8C38;" width="102.1" height="102.1"/>
		</g>
	</g>
	<g>
		
			<image style="overflow:visible;opacity:0.75;" width="163" height="163" xlink:href="515EF846667204B.png"  transform="matrix(1 0 0 1 211 -3.4012)">
		</image>
		<g>
			
				<rect x="239.7" y="24.7" transform="matrix(0.7071 0.7071 -0.7071 0.7071 138.7343 -183.3957)" style="fill:#BC8C38;" width="102.1" height="102.1"/>
		</g>
	</g>
	<g>
		<g>
			<path style="fill:#FFFFFF;stroke:#FFFFFF;stroke-width:2.1147;stroke-miterlimit:10;" d="M185,107.9c0,10.6-4.5,16.6-12.3,16.6
				c-3.3,0-5.2-0.6-6-0.6v-6.1c0.8,0.7,2.4,1.2,4.2,1.2c4.5,0,7.5-3.7,7.5-11.2v-39h-3.9c0.8-1.2,1.8-2.9,2.4-4.1h8.4
				c-0.2,2.1-0.3,6-0.3,8.7V107.9z M181.6,49.2c2.2,0,3.9,1.7,3.9,3.9s-1.7,3.9-3.9,3.9c-2.1,0-3.8-1.7-3.8-3.9
				S179.5,49.2,181.6,49.2z"/>
		</g>
		<g>
			<path style="fill:#FFFFFF;stroke:#FFFFFF;stroke-width:2.1147;stroke-miterlimit:10;" d="M280,68.7h-3.9c0.9-1.2,1.8-2.8,2.4-4.1
				h8.1v8c3-5.2,8-8.6,14.1-8.6c10.5,0,18.6,8.9,18.6,19.5c0,11-8.3,19.7-18.8,19.7c-5.8,0-11.2-2.5-14-7.8v19.9
				c0,2.3,0.1,6.3,0.3,8.7h-7.2c0.2-2.5,0.3-6.4,0.3-8.7V68.7z M299.5,97.7c7.2,0,13.2-6.3,13.2-14c0-7.8-6-14.1-13.4-14.1
				c-7.1,0-12.9,6.3-12.9,14.1C286.4,91.4,292.3,97.7,299.5,97.7z"/>
		</g>
		<g>
			<path style="fill:#FFFFFF;stroke:#FFFFFF;stroke-width:2.1147;stroke-miterlimit:10;" d="M423.2,97.1c0,3.6,0.1,6.5,0.3,8.7h-7
				c0.2-1.6,0.2-3.6,0.2-7.6c-3.1,5.6-8.6,8.2-14.1,8.2c-10.5,0-18.5-8.9-18.5-19.6c0-11.1,8-19.6,18.9-19.6
				c5.8,0,11.1,2.5,13.8,7.7V47.8h-3.9c0.9-1,1.9-3,2.4-4.1h8.4c-0.2,2.7-0.3,5.2-0.3,7.5V97.1z M403.9,72.7
				c-7.3,0-13.3,6.3-13.3,14c0,7.9,5.9,14.2,13.4,14.2c7.1,0,12.9-6.3,12.9-14C416.9,79.1,411.1,72.7,403.9,72.7z"/>
		</g>
	</g>
	
		<rect x="127.4" y="24.7" transform="matrix(0.7071 0.7071 -0.7071 0.7071 105.8525 -104.0121)" style="fill:none;" width="102.1" height="102.1"/>
	
		<rect x="352" y="24.7" transform="matrix(0.7071 0.7071 -0.7071 0.7071 171.616 -262.7792)" style="fill:none;" width="102.1" height="102.1"/>
	
		<rect x="223.3" y="64.4" transform="matrix(-0.7071 0.7071 -0.7071 -0.7071 454.0859 -36.5503)" style="fill:#00FFFF;" width="22.7" height="22.7"/>
	
		<rect x="335.5" y="64.4" transform="matrix(-0.7071 0.7071 -0.7071 -0.7071 645.7345 -115.9338)" style="fill:#FFFFFF;" width="22.7" height="22.7"/>
</g>
</svg>
