<?xml version="1.0" encoding="utf-8"?>
<!-- Generator: Adobe Illustrator 17.1.0, SVG Export Plug-In . SVG Version: 6.00 Build 0)  -->
<!DOCTYPE svg PUBLIC "-//W3C//DTD SVG 1.1//EN" "http://www.w3.org/Graphics/SVG/1.1/DTD/svg11.dtd">
<svg version="1.1" id="Layer_1" xmlns="http://www.w3.org/2000/svg" xmlns:xlink="http://www.w3.org/1999/xlink" x="0px" y="0px"
	 viewBox="0 91 960 284" enable-background="new 0 91 960 284" xml:space="preserve">
<g id="Layer_1_1_" display="none">
</g>
<g id="Layer_2" display="none">
</g>
<g id="Layer_3" display="none">
</g>
<g id="Layer_4">
	<g>
		
			<rect x="488.9" y="144.3" transform="matrix(-0.7071 -0.7071 0.7071 -0.7071 821.2829 806.2402)" fill="#28105D" width="177.5" height="177.5"/>
		
			<rect x="293.7" y="144.2" transform="matrix(-0.7071 -0.7071 0.7071 -0.7071 488.0602 668.1316)" fill="#28105D" width="177.5" height="177.5"/>
		
			<rect x="196.1" y="144.3" transform="matrix(-0.7071 -0.7071 0.7071 -0.7071 321.5097 599.2261)" fill="#104CA0" width="177.5" height="177.5"/>
		
			<rect x="586.4" y="144.2" transform="matrix(-0.7071 -0.7071 0.7071 -0.7071 987.8325 875.1459)" fill="#104CA0" width="177.5" height="177.5"/>
		
			<rect x="391.2" y="144.2" transform="matrix(-0.7071 -0.7071 0.7071 -0.7071 654.6099 737.0374)" fill="#104CA0" width="177.5" height="177.5"/>
		<g>
			<g>
				<g>
					<path fill="#FFFFFF" stroke="#FFFFFF" stroke-width="2.1147" stroke-miterlimit="10" d="M296.2,288.9
						c0,18.4-7.8,28.9-21.4,28.9c-5.7,0-9-1-10.4-1v-10.6c1.4,1.2,4.2,2.1,7.3,2.1c7.8,0,13-6.4,13-19.5v-67.8H278
						c1.4-2.1,3.1-5,4.2-7.1h14.6c-0.3,3.7-0.5,10.4-0.5,15.1L296.2,288.9L296.2,288.9z M290.2,186.8c3.8,0,6.8,3,6.8,6.8
						s-3,6.8-6.8,6.8c-3.7,0-6.6-3-6.6-6.8S286.5,186.8,290.2,186.8z"/>
				</g>
				<g>
					<path fill="#FFFFFF" stroke="#FFFFFF" stroke-width="2.1147" stroke-miterlimit="10" d="M461.4,220.7h-6.8
						c1.6-2.1,3.1-4.9,4.2-7.1h14.1v13.9c5.2-9,13.9-15,24.5-15c18.3,0,32.3,15.5,32.3,33.9c0,19.1-14.4,34.2-32.7,34.2
						c-10.1,0-19.5-4.3-24.3-13.6v34.6c0,4,0.2,11,0.5,15.1h-12.5c0.3-4.3,0.5-11.1,0.5-15.1v-81H461.4z M495.1,271.1
						c12.5,0,22.9-11,22.9-24.3c0-13.6-10.4-24.5-23.3-24.5c-12.3,0-22.4,11-22.4,24.5C472.4,260.2,482.6,271.1,495.1,271.1z"/>
				</g>
				<g>
					<path fill="#FFFFFF" stroke="#FFFFFF" stroke-width="2.1147" stroke-miterlimit="10" d="M710.2,270.1c0,6.3,0.2,11.3,0.5,15.1
						h-12.2c0.3-2.8,0.3-6.3,0.3-13.2c-5.4,9.7-15,14.3-24.5,14.3c-18.3,0-32.2-15.5-32.2-34.1c0-19.3,13.9-34.1,32.9-34.1
						c10.1,0,19.3,4.3,24,13.4v-47.1h-7.1c1.6-1.7,3.3-5.2,4.2-7.1h14.6c-0.3,4.7-0.5,9-0.5,13V270.1z M676.6,227.7
						c-12.7,0-23.1,11-23.1,24.3c0,13.7,10.3,24.7,23.3,24.7c12.3,0,22.4-11,22.4-24.3C699.2,238.8,689.1,227.7,676.6,227.7z"/>
				</g>
			</g>
		</g>
		
			<rect x="196.1" y="144.3" transform="matrix(-0.7071 -0.7071 0.7071 -0.7071 321.5097 599.2261)" fill="none" width="177.5" height="177.5"/>
		
			<rect x="586.4" y="144.2" transform="matrix(-0.7071 -0.7071 0.7071 -0.7071 987.8325 875.1459)" fill="none" width="177.5" height="177.5"/>
		
			<rect x="362.7" y="213.3" transform="matrix(0.7071 -0.7071 0.7071 0.7071 -52.7796 338.6527)" fill="#00FFFF" width="39.5" height="39.5"/>
		
			<rect x="557.8" y="213.3" transform="matrix(0.7071 -0.7071 0.7071 0.7071 4.3436 476.6436)" fill="#FFFFFF" width="39.5" height="39.5"/>
	</g>
</g>
<g id="Layer_6" display="none">
</g>
</svg>
