<?xml version="1.0" encoding="utf-8"?>
<!-- Generator: Adobe Illustrator 17.1.0, SVG Export Plug-In . SVG Version: 6.00 Build 0)  -->
<!DOCTYPE svg PUBLIC "-//W3C//DTD SVG 1.1//EN" "http://www.w3.org/Graphics/SVG/1.1/DTD/svg11.dtd">
<svg version="1.1" xmlns="http://www.w3.org/2000/svg" xmlns:xlink="http://www.w3.org/1999/xlink" x="0px" y="0px"
	 viewBox="0 0 581.5 208.6" style="enable-background:new 0 0 581.5 208.6;" xml:space="preserve">
<g id="Layer_1" style="display:none;">
</g>
<g id="Layer_2">
</g>
<g id="Layer_3">
</g>
<g id="Layer_5">
</g>
<g id="Layer_4">
</g>
<g id="Layer_6">
</g>
<g id="Layer_7">
	<g>
		
			<image style="overflow:visible;opacity:0.75;" width="308" height="113" xlink:href="9DAF7480989A499F.png"  transform="matrix(1 0 0 1 139 144.5988)">
		</image>
		<g>
			<g>
				<path style="fill:#FFFFFF;" d="M175.1,191.8c0,6.2-2.6,9.8-7.3,9.8c-2,0-3.1-0.3-3.6-0.3v-3.6c0.5,0.4,1.4,0.7,2.5,0.7
					c2.6,0,4.5-2.2,4.5-6.7v-23.1h-2.3c0.5-0.7,1.1-1.7,1.4-2.4h5c-0.1,1.2-0.2,3.5-0.2,5.2V191.8z M173,157c1.3,0,2.3,1,2.3,2.3
					s-1,2.3-2.3,2.3c-1.2,0-2.2-1-2.2-2.3S171.8,157,173,157z"/>
				<path style="fill:#FFFFFF;" d="M182.3,168.6H180c0.6-0.7,1.1-1.7,1.4-2.4h4.8v4.7c1.8-3.1,4.7-5.1,8.4-5.1c6.2,0,11,5.2,11,11.6
					c0,6.5-4.9,11.7-11.1,11.7c-3.5,0-6.7-1.5-8.3-4.6v11.8c0,1.4,0.1,3.7,0.2,5.2h-4.2c0.1-1.4,0.2-3.8,0.2-5.2V168.6z
					 M193.8,185.8c4.3,0,7.8-3.7,7.8-8.3c0-4.6-3.5-8.3-7.9-8.3c-4.2,0-7.7,3.8-7.7,8.3C186.1,182,189.6,185.8,193.8,185.8z"/>
				<path style="fill:#FFFFFF;" d="M221.2,165.8c6.4,0,11.6,5.2,11.6,11.7c0,6.4-5.2,11.6-11.6,11.6c-6.4,0-11.6-5.2-11.6-11.6
					C209.7,171,214.9,165.8,221.2,165.8z M221.2,185.6c4.4,0,7.9-3.7,7.9-8.2c0-4.5-3.5-8.2-7.9-8.2s-7.8,3.7-7.8,8.2
					C213.4,182,216.9,185.6,221.2,185.6z"/>
				<path style="fill:#FFFFFF;" d="M250.1,182.9c0,3.7-2.7,6.3-7.2,6.3c-2.6,0-4.9-1-6.2-1.3v-4.9c1,1.9,3.8,3.2,6,3.2
					c2,0,3.5-1.2,3.5-3.1c0-4.6-8.9-4.6-8.9-11.3c0-3.6,2.5-6.1,7-6.1c2.2,0,3.7,0.8,5,0.9v4.3c-0.8-1.5-3.3-2.3-4.9-2.3
					c-2.2,0-3.3,1.3-3.3,2.9C241.2,175.9,250.1,175.8,250.1,182.9z"/>
				<path style="fill:#FFFFFF;" d="M260.3,160.4c-0.1,1.2-0.2,2.8-0.2,4.5v1.3h6.2v3.2h-6.2v11.3c0,3.8,1.5,5.1,3.6,5.1
					c0.7,0,1.5-0.2,1.9-0.6v3.6c-0.8,0-1.8,0.2-3,0.2c-3.5,0-6.5-2.1-6.5-7.6v-12.1h-3.5v-3.2h3.5v-1.3c0-1.7,0-3.3-0.1-4.5H260.3z"
					/>
				<path style="fill:#FFFFFF;" d="M280.8,175.2v3.5h-12.3v-3.5H280.8z"/>
				<path style="fill:#FFFFFF;" d="M308.5,183.5c0,2.1,0,3.9,0.2,5.2h-4.2c0.1-1,0.1-2.1,0.1-4.5c-1.8,3.3-5.1,4.8-8.4,4.8
					c-6.2,0-11-5.2-11-11.6c0-6.5,4.7-11.6,11.2-11.6c3.5,0,6.6,1.5,8.2,4.6v-16h-2.3c0.5-0.6,1.1-1.8,1.4-2.4h5
					c-0.1,1.6-0.2,3.1-0.2,4.5V183.5z M297.1,169.1c-4.3,0-7.9,3.7-7.9,8.2c0,4.7,3.5,8.4,7.9,8.4c4.2,0,7.6-3.8,7.6-8.3
					C304.7,172.9,301.3,169.1,297.1,169.1z"/>
				<path style="fill:#FFFFFF;" d="M317.8,177.2c-0.1,4.6,3.2,8.7,8,8.7c2.8,0,4.7-0.4,6.9-1.9v3.7c-1.7,0.2-3.3,1.3-7.5,1.3
					c-6.6,0-11.4-5.1-11.4-11.6c0-6.8,4.7-11.7,10.6-11.7c7,0,10.4,6.5,10.4,10.5c0,0.3,0,0.7-0.1,0.8H317.8z M317.9,174.5h12.8
					c-0.3-2.6-2.6-5.7-6.2-5.7C321.1,168.8,318.7,171.3,317.9,174.5z"/>
				<path style="fill:#FFFFFF;" d="M351.5,182.9c0,3.7-2.7,6.3-7.2,6.3c-2.6,0-4.9-1-6.2-1.3v-4.9c1,1.9,3.8,3.2,6,3.2
					c2,0,3.5-1.2,3.5-3.1c0-4.6-8.9-4.6-8.9-11.3c0-3.6,2.5-6.1,7-6.1c2.2,0,3.7,0.8,5,0.9v4.3c-0.8-1.5-3.3-2.3-4.9-2.3
					c-2.2,0-3.3,1.3-3.3,2.9C342.6,175.9,351.5,175.8,351.5,182.9z"/>
				<path style="fill:#FFFFFF;" d="M361.2,183.5c0,1.8,0.1,4.2,0.2,5.2h-4.2c0.1-1.1,0.2-3.5,0.2-5.2v-14.9H355
					c0.6-0.6,1.1-1.6,1.5-2.4h4.9c-0.1,1.1-0.2,3.3-0.2,5.2V183.5z M359.2,157c1.3,0,2.3,1,2.3,2.3c0,1.2-1,2.2-2.3,2.2
					c-1.3,0-2.3-1-2.3-2.2C356.9,158,357.9,157,359.2,157z"/>
				<path style="fill:#FFFFFF;" d="M387.4,166.2c0,1.8-0.8,3-2.2,4c0.8,1,1.4,2.8,1.4,4.6c0,5-4.2,9-9.6,9c-2.2,0-3.4-0.9-4.5-0.9
					c-1,0-1.9,1-1.9,2.6c0,1.3,1.1,2.6,2.4,2.6c0.7,0,2.1-0.4,4-0.4c6.1,0,11.2,2.9,11.2,7.3c0,3.9-5.1,7-11.3,7
					c-6.2,0-11.3-3-11.3-7c0-2.5,1.8-4.2,3.9-5.2c-1.6-0.6-2.6-2.5-2.6-4.1c0-1.8,1.2-3.8,3.3-4.5c-1.7-1.5-2.9-3.8-2.9-6.5
					c0-5,4.2-9,9.6-9c2.8,0,4.9,1.2,6.3,2.5c0.5-0.5,0.8-1.2,0.8-2H387.4z M376.8,199.3c4,0,7.3-1.8,7.3-4.2c0-2.3-3.3-4.2-7.5-4.2
					c-4,0-7.2,1.8-7.2,4.1C369.5,197.4,372.7,199.3,376.8,199.3z M376.9,180.8c3.2,0,5.8-2.7,5.8-6s-2.6-5.9-5.8-5.9
					c-3.1,0-5.6,2.6-5.6,5.9S373.8,180.8,376.9,180.8z"/>
				<path style="fill:#FFFFFF;" d="M402.1,169c-3.1,0-5.4,2.5-5.4,6.3v8.2c0,1.4,0.1,3.8,0.2,5.2h-4.2c0.1-1.5,0.2-3.8,0.2-5.2
					v-14.9h-2.3c0.6-0.8,1-1.6,1.5-2.4h4.8v3.5c1.1-2,3.4-3.9,6.7-3.9c4.8,0,7.8,3.5,7.8,9.8v7.9c0,1.4,0,3.8,0.2,5.2h-4.2
					c0.1-1.5,0.2-3.8,0.2-5.2v-7.9C407.4,171,405,169,402.1,169z"/>
			</g>
		</g>
	</g>
	
		<rect x="295.8" y="24.7" transform="matrix(0.7071 0.7071 -0.7071 0.7071 155.1751 -223.0874)" style="fill:#896629;" width="102.1" height="102.1"/>
	
		<rect x="183.6" y="24.7" transform="matrix(0.7071 0.7071 -0.7071 0.7071 122.2934 -143.704)" style="fill:#896629;" width="102.1" height="102.1"/>
	<g>
		
			<image style="overflow:visible;opacity:0.75;" width="163" height="163" xlink:href="9DAF7480989A499D.png"  transform="matrix(1 0 0 1 99 -3.4012)">
		</image>
		<g>
			
				<rect x="127.4" y="24.7" transform="matrix(0.7071 0.7071 -0.7071 0.7071 105.8525 -104.0121)" style="fill:#BC8C38;" width="102.1" height="102.1"/>
		</g>
	</g>
	<g>
		
			<image style="overflow:visible;opacity:0.75;" width="164" height="163" xlink:href="9DAF7480989A49A3.png"  transform="matrix(1 0 0 1 323 -3.4012)">
		</image>
		<g>
			
				<rect x="352" y="24.7" transform="matrix(0.7071 0.7071 -0.7071 0.7071 171.616 -262.7792)" style="fill:#BC8C38;" width="102.1" height="102.1"/>
		</g>
	</g>
	<g>
		
			<image style="overflow:visible;opacity:0.75;" width="163" height="163" xlink:href="9DAF7480989A49A5.png"  transform="matrix(1 0 0 1 211 -3.4012)">
		</image>
		<g>
			
				<rect x="239.7" y="24.7" transform="matrix(0.7071 0.7071 -0.7071 0.7071 138.7343 -183.3957)" style="fill:#BC8C38;" width="102.1" height="102.1"/>
		</g>
	</g>
	<g>
		<g>
			<g>
				<path style="fill:#FFFFFF;stroke:#FFFFFF;stroke-width:2.1147;stroke-miterlimit:10;" d="M185,107.9c0,10.6-4.5,16.6-12.3,16.6
					c-3.3,0-5.2-0.6-6-0.6v-6.1c0.8,0.7,2.4,1.2,4.2,1.2c4.5,0,7.5-3.7,7.5-11.2v-39h-3.9c0.8-1.2,1.8-2.9,2.4-4.1h8.4
					c-0.2,2.1-0.3,6-0.3,8.7V107.9z M181.6,49.2c2.2,0,3.9,1.7,3.9,3.9s-1.7,3.9-3.9,3.9c-2.1,0-3.8-1.7-3.8-3.9
					S179.5,49.2,181.6,49.2z"/>
			</g>
			<g>
				<path style="fill:#FFFFFF;stroke:#FFFFFF;stroke-width:2.1147;stroke-miterlimit:10;" d="M280,68.7h-3.9
					c0.9-1.2,1.8-2.8,2.4-4.1h8.1v8c3-5.2,8-8.6,14.1-8.6c10.5,0,18.6,8.9,18.6,19.5c0,11-8.3,19.7-18.8,19.7
					c-5.8,0-11.2-2.5-14-7.8v19.9c0,2.3,0.1,6.3,0.3,8.7h-7.2c0.2-2.5,0.3-6.4,0.3-8.7V68.7z M299.5,97.7c7.2,0,13.2-6.3,13.2-14
					c0-7.8-6-14.1-13.4-14.1c-7.1,0-12.9,6.3-12.9,14.1C286.4,91.4,292.3,97.7,299.5,97.7z"/>
			</g>
			<g>
				<path style="fill:#FFFFFF;stroke:#FFFFFF;stroke-width:2.1147;stroke-miterlimit:10;" d="M423.2,97.1c0,3.6,0.1,6.5,0.3,8.7h-7
					c0.2-1.6,0.2-3.6,0.2-7.6c-3.1,5.6-8.6,8.2-14.1,8.2c-10.5,0-18.5-8.9-18.5-19.6c0-11.1,8-19.6,18.9-19.6
					c5.8,0,11.1,2.5,13.8,7.7V47.8h-3.9c0.9-1,1.9-3,2.4-4.1h8.4c-0.2,2.7-0.3,5.2-0.3,7.5V97.1z M403.9,72.7
					c-7.3,0-13.3,6.3-13.3,14c0,7.9,5.9,14.2,13.4,14.2c7.1,0,12.9-6.3,12.9-14C416.9,79.1,411.1,72.7,403.9,72.7z"/>
			</g>
		</g>
	</g>
	
		<rect x="127.4" y="24.7" transform="matrix(0.7071 0.7071 -0.7071 0.7071 105.8525 -104.0121)" style="fill:none;" width="102.1" height="102.1"/>
	
		<rect x="352" y="24.7" transform="matrix(0.7071 0.7071 -0.7071 0.7071 171.616 -262.7792)" style="fill:none;" width="102.1" height="102.1"/>
	
		<rect x="223.3" y="64.4" transform="matrix(-0.7071 0.7071 -0.7071 -0.7071 454.0859 -36.5503)" style="fill:#00FFFF;" width="22.7" height="22.7"/>
	
		<rect x="335.5" y="64.4" transform="matrix(-0.7071 0.7071 -0.7071 -0.7071 645.7345 -115.9338)" style="fill:#FFFFFF;" width="22.7" height="22.7"/>
</g>
</svg>
