<?xml version="1.0" encoding="utf-8"?>
<!-- Generator: Adobe Illustrator 17.1.0, SVG Export Plug-In . SVG Version: 6.00 Build 0)  -->
<!DOCTYPE svg PUBLIC "-//W3C//DTD SVG 1.1//EN" "http://www.w3.org/Graphics/SVG/1.1/DTD/svg11.dtd">
<svg version="1.1" xmlns="http://www.w3.org/2000/svg" xmlns:xlink="http://www.w3.org/1999/xlink" x="0px" y="0px"
	 viewBox="0 0 552.2 198.4" style="enable-background:new 0 0 552.2 198.4;" xml:space="preserve">
	 	<defs>
	 		<filter id="dropshadow" height="130%">
              <feGaussianBlur in="SourceAlpha" stdDeviation="3"/> 
              <feOffset dx="2" dy="2" result="offsetblur"/> 
              <feMerge> 
                <feMergeNode/>
                <feMergeNode in="SourceGraphic"/> 
              </feMerge>
            </filter>
	 	</defs>
<g id="Layer_1" style="display:none;">
</g>
<g id="Layer_2" style="display:none;">
</g>
<g id="Layer_3" style="display:none;">
</g>
<g id="Layer_5">
	<g>
		<rect x="131.8" y="148.4" style="fill:none;" width="289.1" height="94.6"/>
		<path style="fill:#FFFFFF;" d="M160.4,188.2c0,6.2-2.6,9.8-7.3,9.8c-2,0-3.1-0.3-3.6-0.3V194c0.5,0.4,1.4,0.7,2.5,0.7
			c2.6,0,4.5-2.2,4.5-6.7V165h-2.3c0.5-0.7,1.1-1.7,1.4-2.4h5c-0.1,1.2-0.2,3.5-0.2,5.2V188.2z M158.3,153.5c1.3,0,2.3,1,2.3,2.3
			s-1,2.3-2.3,2.3c-1.2,0-2.2-1-2.2-2.3S157.1,153.5,158.3,153.5z" filter="url(#dropshadow)"/>
		<path style="fill:#FFFFFF;" d="M167.6,165h-2.3c0.6-0.7,1.1-1.7,1.4-2.4h4.8v4.7c1.8-3.1,4.7-5.1,8.4-5.1c6.2,0,11,5.2,11,11.6
			c0,6.5-4.9,11.7-11.1,11.7c-3.5,0-6.7-1.5-8.3-4.6v11.8c0,1.4,0.1,3.7,0.2,5.2h-4.2c0.1-1.4,0.2-3.8,0.2-5.2V165z M179.1,182.2
			c4.3,0,7.8-3.7,7.8-8.3c0-4.6-3.5-8.3-7.9-8.3c-4.2,0-7.7,3.8-7.7,8.3C171.4,178.4,174.9,182.2,179.1,182.2z" filter="url(#dropshadow)"/>
		<path style="fill:#FFFFFF;" d="M206.5,162.2c6.4,0,11.6,5.2,11.6,11.7c0,6.4-5.2,11.6-11.6,11.6c-6.4,0-11.6-5.2-11.6-11.6
			C195,167.4,200.2,162.2,206.5,162.2z M206.5,182c4.4,0,7.9-3.7,7.9-8.2c0-4.5-3.5-8.2-7.9-8.2s-7.8,3.7-7.8,8.2
			C198.7,178.4,202.2,182,206.5,182z" filter="url(#dropshadow)"/>
		<path style="fill:#FFFFFF;" d="M235.4,179.3c0,3.7-2.7,6.3-7.2,6.3c-2.6,0-4.9-1-6.2-1.3v-4.9c1,1.9,3.8,3.2,6,3.2
			c2,0,3.5-1.2,3.5-3.1c0-4.6-8.9-4.6-8.9-11.3c0-3.6,2.5-6.1,7-6.1c2.2,0,3.7,0.8,5,0.9v4.3c-0.8-1.5-3.3-2.3-4.9-2.3
			c-2.2,0-3.3,1.3-3.3,2.9C226.5,172.3,235.4,172.2,235.4,179.3z" filter="url(#dropshadow)"/>
		<path style="fill:#FFFFFF;" d="M245.6,156.9c-0.1,1.2-0.2,2.8-0.2,4.5v1.3h6.2v3.2h-6.2v11.3c0,3.8,1.5,5.1,3.6,5.1
			c0.7,0,1.5-0.2,1.9-0.6v3.6c-0.8,0-1.8,0.2-3,0.2c-3.5,0-6.5-2.1-6.5-7.6v-12.1h-3.5v-3.2h3.5v-1.3c0-1.7,0-3.3-0.1-4.5H245.6z" filter="url(#dropshadow)"/>
		<path style="fill:#FFFFFF;" d="M266.1,171.6v3.5h-12.3v-3.5H266.1z" filter="url(#dropshadow)"/>
		<path style="fill:#FFFFFF;" d="M293.8,179.9c0,2.1,0,3.9,0.2,5.2h-4.2c0.1-1,0.1-2.1,0.1-4.5c-1.8,3.3-5.1,4.8-8.4,4.8
			c-6.2,0-11-5.2-11-11.6c0-6.5,4.7-11.6,11.2-11.6c3.5,0,6.6,1.5,8.2,4.6v-16h-2.3c0.5-0.6,1.1-1.8,1.4-2.4h5
			c-0.1,1.6-0.2,3.1-0.2,4.5V179.9z M282.4,165.5c-4.3,0-7.9,3.7-7.9,8.2c0,4.7,3.5,8.4,7.9,8.4c4.2,0,7.6-3.8,7.6-8.3
			C290,169.3,286.6,165.5,282.4,165.5z" filter="url(#dropshadow)"/>
		<path style="fill:#FFFFFF;" d="M303.1,173.6c-0.1,4.6,3.2,8.7,8,8.7c2.8,0,4.7-0.4,6.9-1.9v3.7c-1.7,0.2-3.3,1.3-7.5,1.3
			c-6.6,0-11.4-5.1-11.4-11.6c0-6.8,4.7-11.7,10.6-11.7c7,0,10.4,6.5,10.4,10.5c0,0.3,0,0.7-0.1,0.8H303.1z M303.2,170.9H316
			c-0.3-2.6-2.6-5.7-6.2-5.7C306.4,165.2,304,167.7,303.2,170.9z" filter="url(#dropshadow)"/>
		<path style="fill:#FFFFFF;" d="M336.8,179.3c0,3.7-2.7,6.3-7.2,6.3c-2.6,0-4.9-1-6.2-1.3v-4.9c1,1.9,3.8,3.2,6,3.2
			c2,0,3.5-1.2,3.5-3.1c0-4.6-8.9-4.6-8.9-11.3c0-3.6,2.5-6.1,7-6.1c2.2,0,3.7,0.8,5,0.9v4.3c-0.8-1.5-3.3-2.3-4.9-2.3
			c-2.2,0-3.3,1.3-3.3,2.9C327.9,172.3,336.8,172.2,336.8,179.3z" filter="url(#dropshadow)"/>
		<path style="fill:#FFFFFF;" d="M346.5,179.9c0,1.8,0.1,4.2,0.2,5.2h-4.2c0.1-1.1,0.2-3.5,0.2-5.2V165h-2.3
			c0.6-0.6,1.1-1.6,1.5-2.4h4.9c-0.1,1.1-0.2,3.3-0.2,5.2V179.9z M344.5,153.5c1.3,0,2.3,1,2.3,2.3c0,1.2-1,2.2-2.3,2.2
			c-1.3,0-2.3-1-2.3-2.2C342.2,154.5,343.2,153.5,344.5,153.5z" filter="url(#dropshadow)"/>
		<path style="fill:#FFFFFF;" d="M372.7,162.6c0,1.8-0.8,3-2.2,4c0.8,1,1.4,2.8,1.4,4.6c0,5-4.2,9-9.6,9c-2.2,0-3.4-0.9-4.5-0.9
			c-1,0-1.9,1-1.9,2.6c0,1.3,1.1,2.6,2.4,2.6c0.7,0,2.1-0.4,4-0.4c6.1,0,11.2,2.9,11.2,7.3c0,3.9-5.1,7-11.3,7c-6.2,0-11.3-3-11.3-7
			c0-2.5,1.8-4.2,3.9-5.2c-1.6-0.6-2.6-2.5-2.6-4.1c0-1.8,1.2-3.8,3.3-4.5c-1.7-1.5-2.9-3.8-2.9-6.5c0-5,4.2-9,9.6-9
			c2.8,0,4.9,1.2,6.3,2.5c0.5-0.5,0.8-1.2,0.8-2H372.7z M362.1,195.7c4,0,7.3-1.8,7.3-4.2c0-2.3-3.3-4.2-7.5-4.2
			c-4,0-7.2,1.8-7.2,4.1C354.8,193.8,358,195.7,362.1,195.7z M362.2,177.2c3.2,0,5.8-2.7,5.8-6s-2.6-5.9-5.8-5.9
			c-3.1,0-5.6,2.6-5.6,5.9S359.1,177.2,362.2,177.2z" filter="url(#dropshadow)"/>
		<path style="fill:#FFFFFF;" d="M387.5,165.4c-3.1,0-5.4,2.5-5.4,6.3v8.2c0,1.4,0.1,3.8,0.2,5.2h-4.2c0.1-1.5,0.2-3.8,0.2-5.2V165
			h-2.3c0.6-0.8,1-1.6,1.5-2.4h4.8v3.5c1.1-2,3.4-3.9,6.7-3.9c4.8,0,7.8,3.5,7.8,9.8v7.9c0,1.4,0,3.8,0.2,5.2h-4.2
			c0.1-1.5,0.2-3.8,0.2-5.2V172C392.7,167.4,390.3,165.4,387.5,165.4z" filter="url(#dropshadow)"/>
	</g>
</g>
<g id="Layer_4">
	<g>
		
			<rect x="281.2" y="21.1" transform="matrix(0.7071 0.7071 -0.7071 0.7071 148.3347 -213.7706)" style="fill:#28105D;" width="102.1" height="102.1"/>
		
			<rect x="168.9" y="21.1" transform="matrix(0.7071 0.7071 -0.7071 0.7071 115.453 -134.3872)" style="fill:#28105D;" width="102.1" height="102.1"/>
		
			<rect x="112.8" y="21.1" transform="matrix(0.7071 0.7071 -0.7071 0.7071 99.012 -94.6953)" style="fill:#104CA0;" width="102.1" height="102.1" filter="url(#dropshadow)"/>
		
			<rect x="337.3" y="21.1" transform="matrix(0.7071 0.7071 -0.7071 0.7071 164.7755 -253.4623)" style="fill:#104CA0;" width="102.1" height="102.1" filter="url(#dropshadow)"/>
		
			<rect x="225" y="21.1" transform="matrix(0.7071 0.7071 -0.7071 0.7071 131.8938 -174.0789)" style="fill:#104CA0;" width="102.1" height="102.1" filter="url(#dropshadow)"/>
		<g>
			<g>
				<g>
					<path style="fill:#FFFFFF;stroke:#FFFFFF;stroke-width:2.1147;stroke-miterlimit:10;" d="M170.4,104.3
						c0,10.6-4.5,16.6-12.3,16.6c-3.3,0-5.2-0.6-6-0.6v-6.1c0.8,0.7,2.4,1.2,4.2,1.2c4.5,0,7.5-3.7,7.5-11.2v-39h-3.9
						c0.8-1.2,1.8-2.9,2.4-4.1h8.4c-0.2,2.1-0.3,6-0.3,8.7V104.3z M166.9,45.6c2.2,0,3.9,1.7,3.9,3.9s-1.7,3.9-3.9,3.9
						c-2.1,0-3.8-1.7-3.8-3.9S164.8,45.6,166.9,45.6z"/>
				</g>
				<g>
					<path style="fill:#FFFFFF;stroke:#FFFFFF;stroke-width:2.1147;stroke-miterlimit:10;" d="M265.4,65.1h-3.9
						c0.9-1.2,1.8-2.8,2.4-4.1h8.1v8c3-5.2,8-8.6,14.1-8.6c10.5,0,18.6,8.9,18.6,19.5c0,11-8.3,19.7-18.8,19.7
						c-5.8,0-11.2-2.5-14-7.8v19.9c0,2.3,0.1,6.3,0.3,8.7h-7.2c0.2-2.5,0.3-6.4,0.3-8.7V65.1z M284.8,94.1c7.2,0,13.2-6.3,13.2-14
						c0-7.8-6-14.1-13.4-14.1c-7.1,0-12.9,6.3-12.9,14.1C271.7,87.8,277.6,94.1,284.8,94.1z"/>
				</g>
				<g>
					<path style="fill:#FFFFFF;stroke:#FFFFFF;stroke-width:2.1147;stroke-miterlimit:10;" d="M408.5,93.5c0,3.6,0.1,6.5,0.3,8.7h-7
						c0.2-1.6,0.2-3.6,0.2-7.6c-3.1,5.6-8.6,8.2-14.1,8.2c-10.5,0-18.5-8.9-18.5-19.6c0-11.1,8-19.6,18.9-19.6
						c5.8,0,11.1,2.5,13.8,7.7V44.2H398c0.9-1,1.9-3,2.4-4.1h8.4c-0.2,2.7-0.3,5.2-0.3,7.5V93.5z M389.2,69.1
						c-7.3,0-13.3,6.3-13.3,14c0,7.9,5.9,14.2,13.4,14.2c7.1,0,12.9-6.3,12.9-14C402.2,75.5,396.4,69.1,389.2,69.1z"/>
				</g>
			</g>
		</g>
		
			<rect x="112.8" y="21.1" transform="matrix(0.7071 0.7071 -0.7071 0.7071 99.012 -94.6953)" style="fill:none;" width="102.1" height="102.1"/>
		
			<rect x="337.3" y="21.1" transform="matrix(0.7071 0.7071 -0.7071 0.7071 164.7755 -253.4623)" style="fill:none;" width="102.1" height="102.1"/>
		
			<rect x="208.6" y="60.8" transform="matrix(-0.7071 0.7071 -0.7071 -0.7071 426.5037 -32.3229)" style="fill:#00FFFF;" width="22.7" height="22.7"/>
		
			<rect x="320.9" y="60.8" transform="matrix(-0.7071 0.7071 -0.7071 -0.7071 618.1522 -111.7063)" style="fill:#FFFFFF;" width="22.7" height="22.7"/>
	</g>
</g>
<g id="Layer_6" style="display:none;">
</g>
</svg>
