<?xml version="1.0" encoding="utf-8"?>
<!-- Generator: Adobe Illustrator 17.1.0, SVG Export Plug-In . SVG Version: 6.00 Build 0)  -->
<!DOCTYPE svg PUBLIC "-//W3C//DTD SVG 1.1//EN" "http://www.w3.org/Graphics/SVG/1.1/DTD/svg11.dtd">
<svg version="1.1" id="Layer_1" xmlns="http://www.w3.org/2000/svg" xmlns:xlink="http://www.w3.org/1999/xlink" x="0px" y="0px"
	 viewBox="20 164 920 232" enable-background="new 20 164 920 232" xml:space="preserve">
<g>
	<path fill="#3C3C3C" d="M84.8,259.7c0,16.6-10.4,26.2-28.4,26.2H45.5v22H26.3v-74.3h30.1C74.4,233.6,84.8,243.2,84.8,259.7z
		 M65.7,259.7c0-4.7-2.7-10.5-11.1-10.5h-9.1V270h9.1C63,270,65.7,264.6,65.7,259.7z"/>
	<path fill="#3C3C3C" d="M163.1,270.7c0,31.3-18.9,37.9-34.8,37.9s-34.8-6.6-34.8-37.9s18.9-37.9,34.8-37.9S163.1,239.4,163.1,270.7
		z M144,270.7c0-17.7-7.6-21.5-15.7-21.5s-15.7,3.8-15.7,21.5s7.6,21.5,15.7,21.5S144,288.4,144,270.7z"/>
	<path fill="#3C3C3C" d="M276.3,233.6l-23.9,74.3h-17.5L222,265.4l-12.8,42.5h-17.5l-23.9-74.3h20l12.7,46.9l13.2-46.9h16.5
		l13.2,46.9l12.7-46.9C256.2,233.6,276.3,233.6,276.3,233.6z"/>
	<path fill="#3C3C3C" d="M307,249.2v13.7h28.3v15.7H307v13.6h32.6v15.7h-51.8v-74.3h51.8v15.6H307z"/>
	<path fill="#3C3C3C" d="M417.2,307.9h-21.4L382,283.1h-7.9v24.8H355v-74.3h29.3c17.7,0,29.9,8.5,29.9,24.2
		c0,12.2-6.3,19.6-14.9,22.4L417.2,307.9z M385.5,268.7c5,0,9.6-3.8,9.6-9.7c0-6-4.6-9.8-9.6-9.8h-11.4v19.5L385.5,268.7
		L385.5,268.7z"/>
</g>
<g>
	<path fill="#3C3C3C" d="M642.6,233.6l-29.5,43v31.3h-19.2v-31.3l-29.5-43h23.3l15.8,28.3l15.8-28.3H642.6z"/>
	<path fill="#3C3C3C" d="M711.3,270.7c0,31.3-18.9,37.9-34.8,37.9c-15.9,0-34.8-6.6-34.8-37.9s18.9-37.9,34.8-37.9
		S711.3,239.4,711.3,270.7z M692.1,270.7c0-17.7-7.6-21.5-15.7-21.5c-8.1,0-15.7,3.8-15.7,21.5s7.6,21.5,15.7,21.5
		C684.6,292.2,692.1,288.4,692.1,270.7z"/>
	<path fill="#3C3C3C" d="M787.7,233.6v42.3c0,20.8-11.7,32.7-31.7,32.7s-31.7-11.9-31.7-32.7v-42.3h19.1v44.5c0,9.5,3.9,14,12.6,14
		c8.7,0,12.6-4.6,12.6-14v-44.5C768.5,233.6,787.7,233.6,787.7,233.6z"/>
	<path fill="#3C3C3C" d="M860.3,233.6V251h-21.6v56.9h-19.1V251h-21.4v-17.4C798.1,233.6,860.3,233.6,860.3,233.6z"/>
	<path fill="#3C3C3C" d="M933.5,233.6v74.3h-19.2v-29.3h-23.8v29.3h-19.2v-74.3h19.2v29.3h23.8v-29.3H933.5z"/>
</g>
<g>
	<path fill="#3C3C3C" d="M448.1,269.2l-35.9,13.1l247.1,108.3l-129.1-92.6l56.7-20.7L339.7,169l114.8,82.4c4-4.1,9.6-6.6,15.8-6.6
		c12.3,0,22.3,10,22.3,22.3c0,12.3-10,22.3-22.3,22.3C458.7,289.4,449.1,280.5,448.1,269.2z M500.2,268.3h34v11.1h-22.9v7.2h13.4
		v9.7h-13.4v10.8h-11.1V268.3z"/>
	<path fill="#3C3C3C" d="M481.5,267.1c0-6.2-5-11.2-11.2-11.2c-6.2,0-11.2,5-11.2,11.2c0,6.2,5,11.2,11.2,11.2
		C476.5,278.3,481.5,273.3,481.5,267.1z"/>
</g>
</svg>
