<?xml version="1.0" encoding="utf-8"?>
<!-- Generator: Adobe Illustrator 17.0.0, SVG Export Plug-In . SVG Version: 6.00 Build 0)  -->
<!DOCTYPE svg PUBLIC "-//W3C//DTD SVG 1.1 Tiny//EN" "http://www.w3.org/Graphics/SVG/1.1/DTD/svg11-tiny.dtd">
<svg version="1.1" baseProfile="tiny" xmlns="http://www.w3.org/2000/svg" xmlns:xlink="http://www.w3.org/1999/xlink" x="0px"
	 y="0px" width="100px" height="100px" viewBox="0 0 100 100" xml:space="preserve">
<g id="Layer_4">
	<rect fill="#FFFFFF" width="100" height="100"/>
</g>
<g id="Layer_3">
	<path fill="#777777" d="M49.77,62.97"/>
	<path fill="#777777" d="M20.49,33.69"/>
	<path fill="#777777" d="M31.77,13.2c-12.42,0-22.49,10.07-22.49,22.49s10.07,22.49,22.49,22.49c12.42,0,22.49-10.07,22.49-22.49
		S44.19,13.2,31.77,13.2z M10.83,37.63c-0.06-0.68-0.1-1.36-0.1-2.05c0-11.27,8.77-20.47,19.86-21.2
		C20.97,18.76,13.63,27.26,10.83,37.63z M31.77,52.6c-5.09,0-9.86-2.26-13.09-6.2l2.16-1.77c2.9,1.43,6.68,4.37,10.93,4.37
		c4.66,0,8.68-3.16,11.66-5.33l2.3,1.58C42.57,49.85,37.35,52.6,31.77,52.6z"/>
	<path fill="#777777" d="M87.69,20H72.31C68.82,20,66,22.82,66,26.31v15.17L59.65,48h12.66H75h12.69c3.48,0,6.31-2.82,6.31-6.31
		V26.31C94,22.82,91.18,20,87.69,20z M85,43H70.28L70,42.71V41h15V43z M90,38H70v-2h20V38z M90,33H70v-2h20V33z M90,28H70v-2h20V28z
		"/>
	<path fill="#777777" d="M59.25,94.52c0,1.87-0.12,3.7-0.36,5.48h22.72c-4.76-18.65-13.85-33.91-25.35-42.79
		c-6.27,6.4-15.01,10.38-24.69,10.38c-9.03,0-17.25-3.46-23.4-9.13c-2.9,2.44-5.63,5.3-8.17,8.51V100h7.11
		c-0.23-1.78-0.36-3.61-0.36-5.48c0-6.99,1.66-13.69,4.81-19.37L14,76.5C11.08,81.77,9.54,88,9.54,94.52c0,1.87,0.13,3.7,0.38,5.48
		h46.16c0.25-1.78,0.38-3.61,0.38-5.48c0-6.68-1.61-13.03-4.66-18.37l2.42-1.38C57.51,80.52,59.25,87.35,59.25,94.52z"/>
</g>
</svg>
